<svg width="60" height="40" viewBox="0 0 60 40" fill="none" xmlns="http://www.w3.org/2000/svg">
  <rect width="60" height="40" rx="4" fill="#1A1F71"/>
  <path d="M25.5 28H21.5L24 12H28L25.5 28Z" fill="white"/>
  <path d="M38 12.5L34.5 23L33.5 18.5L31.5 12.5C31.5 12.5 31 12 30 12H24L24.5 13C24.5 13 26.5 13.5 28 14.5L31.5 28H35.5L42 12H38Z" fill="white"/>
  <path d="M45 12C44 12 43.5 12.5 43 13L37 28H41L41.5 26H46.5L47 28H50.5L47.5 12H45ZM42.5 23L44.5 17L45.5 23H42.5Z" fill="white"/>
  <path d="M19.5 16.5C19.5 15 18.5 14 16.5 13.5C15 13 13 12 10.5 12H5L5.5 13C5.5 13 8 13.5 10 15L13 28H17L18 24C19 24.5 20 24.5 21 24.5C24 24.5 26.5 22.5 26.5 19C26.5 16.5 24.5 15.5 22 15C20.5 14.5 19 14.5 19 13.5C19 12.5 20 12 21 12C22 12 23 12.5 23 12.5L23.5 13L24 9.5C24 9.5 22.5 9 20.5 9C17.5 9 15 10.5 15 13.5C15 16 17 17 19.5 17.5C21 18 22 18.5 22 19.5C22 20.5 21 21 20 21C18.5 21 17 20.5 17 20.5L16.5 20L16 23.5C16 23.5 17.5 24.5 19.5 24.5" fill="white"/>
</svg>